<svg xmlns="http://www.w3.org/2000/svg" width="33.632" height="34.8" viewBox="0 0 33.632 34.8">
  <defs>
    <style>
      .cls-1 {
        fill: #2453d4;
      }
    </style>
  </defs>
  <path id="ic_account_circle_24px" class="cls-1" d="M18.816,2C9.534,2,2,9.8,2,19.4S9.534,36.8,18.816,36.8,35.632,29,35.632,19.4,28.1,2,18.816,2Zm0,5.22a5.128,5.128,0,0,1,5.045,5.22,5.048,5.048,0,1,1-10.09,0A5.128,5.128,0,0,1,18.816,7.22Zm0,24.708a12.009,12.009,0,0,1-10.09-5.6c.05-3.463,6.726-5.359,10.09-5.359,3.346,0,10.039,1.9,10.09,5.359A12.009,12.009,0,0,1,18.816,31.928Z" transform="translate(-2 -2)"/>
</svg>
