<svg xmlns="http://www.w3.org/2000/svg" width="28.966" height="30.6" viewBox="0 0 28.966 30.6">
  <defs>
    <style>
      .cls-1 {
        fill: #2453d4;
      }
    </style>
  </defs>
  <path id="ic_add_alert_24px" class="cls-1" d="M14.281,29.7a3.06,3.06,0,0,0,3.2,2.9,3.06,3.06,0,0,0,3.2-2.9Zm14.274-6.105V15.114c0-4.736-3.621-8.7-8.513-9.748V4.317A2.443,2.443,0,0,0,17.483,2a2.443,2.443,0,0,0-2.559,2.317V5.366c-4.892,1.049-8.513,5.013-8.513,9.748v8.481L3,26.684v1.545H31.966V26.684ZM11.046,15.114l8.046,2.929L18,16.237l-2.122,6.178h0l-4.828-4.371,4.828,4.371,8.046-7.3-3.878-4.371h-.949l4.828,4.371Z" transform="translate(-3 -2)"/>
</svg>
