<svg xmlns="http://www.w3.org/2000/svg" width="18" height="18.435" viewBox="0 0 18 18.435">
  <defs>
    <style>
      .cls-1, .cls-4 {
        fill: none;
      }

      .cls-1 {
        stroke: rgba(0,0,0,0);
      }

      .cls-1, .cls-2 {
        stroke-linecap: round;
        stroke-linejoin: round;
      }

      .cls-2 {
        fill: #2699fb;
      }

      .cls-3, .cls-5 {
        stroke: none;
      }

      .cls-5 {
        fill: rgba(0,0,0,0);
      }
    </style>
  </defs>
  <g id="Symbol_62_17" data-name="Symbol 62 – 17" transform="translate(1 1)">
    <g id="Rectangle_176" data-name="Rectangle 176" class="cls-1" transform="translate(0 0.435)">
      <rect class="cls-3" width="16" height="16"/>
      <rect class="cls-4" x="-0.5" y="-0.5" width="17" height="17"/>
    </g>
    <g id="Path_99" data-name="Path 99" class="cls-2">
      <path class="cls-3" d="M15.9,14.5l-3.3-3.3A6.847,6.847,0,0,0,14,7,6.957,6.957,0,0,0,7,0,6.957,6.957,0,0,0,0,7a6.957,6.957,0,0,0,7,7,6.847,6.847,0,0,0,4.2-1.4l3.3,3.3ZM2,7A4.951,4.951,0,0,1,7,2a4.951,4.951,0,0,1,5,5,4.951,4.951,0,0,1-5,5A4.951,4.951,0,0,1,2,7Z"/>
      <path class="cls-5" d="M 14.5 15.90000057220459 L 15.89999961853027 14.5 L 12.59999942779541 11.20000076293945 C 13.5 10 14 8.600000381469727 14 7.000000476837158 C 14 3.100000381469727 10.89999961853027 2.861023062905588e-07 7 2.861023062905588e-07 C 3.099999904632568 2.861023062905588e-07 -1.907348661234209e-07 3.100000381469727 -1.907348661234209e-07 7.000000476837158 C -1.907348661234209e-07 10.90000057220459 3.099999904632568 14 7 14 C 8.59999942779541 14 10 13.5 11.19999980926514 12.60000038146973 L 14.5 15.90000057220459 M 7 2.000000238418579 C 9.800000190734863 2.000000238418579 12 4.200000286102295 12 7.000000476837158 C 12 9.800000190734863 9.800000190734863 12 7 12 C 4.199999809265137 12 1.999999761581421 9.800000190734863 1.999999761581421 7.000000476837158 C 1.999999761581421 4.200000286102295 4.199999809265137 2.000000238418579 7 2.000000238418579 M 14.5 16.89999961853027 C 14.24407768249512 16.89999961853027 13.98815441131592 16.80237007141113 13.79288959503174 16.60711097717285 L 11.07400989532471 13.88823127746582 C 9.840466499328613 14.62655830383301 8.473874092102051 15 7 15 C 4.8466796875 15 2.83316969871521 14.1723804473877 1.330389857292175 12.66961002349854 C -0.172380194067955 11.16683006286621 -1.000000238418579 9.1533203125 -1.000000238418579 7.000000476837158 C -1.000000238418579 4.846680164337158 -0.172380194067955 2.833170175552368 1.330389857292175 1.330390334129333 C 2.83316969871521 -0.1723797172307968 4.8466796875 -0.9999997019767761 7 -0.9999997019767761 C 9.153319358825684 -0.9999997019767761 11.16683006286621 -0.1723797172307968 12.66961002349854 1.330390334129333 C 14.17237949371338 2.833170175552368 15 4.846680164337158 15 7.000000476837158 C 15 8.473875045776367 14.62655830383301 9.84046745300293 13.8882303237915 11.07401084899902 L 16.60710906982422 13.79289054870605 C 16.99762916564941 14.18342018127441 16.99762916564941 14.81657981872559 16.60710906982422 15.20711040496826 L 15.20710945129395 16.60711097717285 C 15.01184463500977 16.80237007141113 14.75592231750488 16.89999961853027 14.5 16.89999961853027 Z M 7 3.000000238418579 C 4.757009983062744 3.000000238418579 2.999999761581421 4.757010459899902 2.999999761581421 7.000000476837158 C 2.999999761581421 9.242990493774414 4.757009983062744 11 7 11 C 9.242989540100098 11 11 9.242990493774414 11 7.000000476837158 C 11 4.757010459899902 9.242989540100098 3.000000238418579 7 3.000000238418579 Z"/>
    </g>
  </g>
</svg>
